<svg xmlns="http://www.w3.org/2000/svg"
  shape-rendering="geometricPrecision"
  text-rendering="geometricPrecision"
  image-rendering="optimizeQuality"
  fill-rule="evenodd"
  clip-rule="evenodd"
  viewBox="-100 -100 200 200"
>
  <defs>
    <clipPath id="outercircle" clipPathUnits="userSpaceOnUse">
      <ellipse ry="100" rx="100" cy="0" cx="0"/>
    </clipPath>
  </defs>
  <g fill="black" clip-path="url(#outercircle)">
    <path d="M0 0 V 100 H 45" transform='rotate(0)'/>
    <path d="M0 0 V 100 H 45" transform='rotate(45)'/>
    <path d="M0 0 V 100 H 45" transform='rotate(90)'/>
    <path d="M0 0 V 100 H 45" transform='rotate(135)'/>
    <path d="M0 0 V 100 H 45" transform='rotate(180)'/>
    <path d="M0 0 V 100 H 45" transform='rotate(225)'/>
    <path d="M0 0 V 100 H 45" transform='rotate(270)'/>
    <path d="M0 0 V 100 H 45" transform='rotate(315)'/>
  </g>
  <ellipse ry="80" rx="80" cy="0" cx="0" fill="white"/>
  <ellipse ry="99" rx="99" cy="0" cx="0" stroke="black" stroke-width="2" fill="none"/>
  <ellipse ry="80" rx="80" cy="0" cx="0" stroke="black" stroke-width="2" fill="none"/>
  <text x="-54" y="54" fill="#5bb4d2" style="font:150px sans-serif">N</text>
  <path d="M20 0 L-20 0 L 0 -70 L20 0" fill="#c12828" />
  <path d="M20 0 L-20 0 L 0 70 L20 0" fill="white" />
  <path d="M20 0 L 0 70 L-20 0 L 0 -70 L20 0" stroke="black" stroke-width="3" fill="none" />
  <ellipse ry="20" rx="20" cy="0" cx="0" fill="#5bb4d2" stroke="black" stroke-width="3"/>
</svg>