<svg xmlns="http://www.w3.org/2000/svg" viewBox="-100 -100 200 200">
  <defs>
    <clipPath id="outercircle" clipPathUnits="userSpaceOnUse">
      <ellipse ry="100" rx="100" cy="0" cx="0"/>
    </clipPath>
  </defs>
  <ellipse ry="100" rx="100" cy="0" cx="0" fill="#c9dcea"/>
  <g fill="black" clip-path="url(#outercircle)">
    <path d="m 0 0 v 100 h 45" transform='rotate(0)'/>
    <path d="m 0 0 v 100 h 45" transform='rotate(45)'/>
    <path d="m 0 0 v 100 h 45" transform='rotate(90)'/>
    <path d="m 0 0 v 100 h 45" transform='rotate(135)'/>
    <path d="m 0 0 v 100 h 45" transform='rotate(180)'/>
    <path d="m 0 0 v 100 h 45" transform='rotate(225)'/>
    <path d="m 0 0 v 100 h 45" transform='rotate(270)'/>
    <path d="m 0 0 v 100 h 45" transform='rotate(315)'/>
  </g>
  <ellipse ry="80" rx="80" cy="0" cx="0" fill="white"/>
  <ellipse ry="99" rx="99" cy="0" cx="0" stroke="black" stroke-width="2" fill="none"/>
  <ellipse ry="80" rx="80" cy="0" cx="0" stroke="black" stroke-width="2" fill="none"/>
  <text x="-54" y="54" fill="#4683b1" style="font:150px sans-serif">N</text>
  <path d="m 15 0 L -15 0 L 0 -70 L 15 0" fill="#c12828" />
  <path d="m 15 0 L -15 0 L 0 70 L 15 0" fill="#c9dcea" />
  <path d="m 15 0 L 0 70 L-15 0 L 0 -70 Z" stroke="black" stroke-width="3" fill="none" />
  <path d="m 15 0 L -15 0" stroke="black" stroke-width="3" fill="none" />
</svg>